<?xml version="1.0" encoding="iso-8859-1"?>
<!-- Generator: Adobe Illustrator 25.2.3, SVG Export Plug-In . SVG Version: 6.00 Build 0)  -->
<svg version="1.1" baseProfile="basic" id="Layer_10"
	 xmlns="http://www.w3.org/2000/svg" xmlns:xlink="http://www.w3.org/1999/xlink" x="0px" y="0px" viewBox="0 0 48 48"
	 xml:space="preserve">
<polygon style="fill-rule:evenodd;clip-rule:evenodd;fill:#00B3D7;" points="42.999,11.41 42.999,42.04 11,43.974 4.999,34.12 
	4.999,6.04 32.469,4.01 "/>
<path style="fill-rule:evenodd;clip-rule:evenodd;fill:#FFFFFF;" d="M11.553,11.099c1.232,1.001,1.694,0.925,4.008,0.77l21.812-1.31
	c0.463,0,0.078-0.461-0.076-0.538l-3.622-2.619c-0.694-0.539-1.619-1.156-3.391-1.002L9.164,7.94C8.394,8.016,8.24,8.401,8.547,8.71
	L11.553,11.099z"/>
<path style="fill-rule:evenodd;clip-rule:evenodd;fill:#FFFFFF;" d="M12.862,16.182v22.95c0,1.233,0.616,1.695,2.004,1.619
	l23.971-1.387c1.388-0.076,1.543-0.925,1.543-1.927V14.641c0-1-0.385-1.54-1.234-1.463l-25.05,1.463
	C13.171,14.718,12.862,15.181,12.862,16.182L12.862,16.182z"/>
<polygon style="fill-rule:evenodd;clip-rule:evenodd;fill:#7DEBF5;" points="37.989,10.52 11.47,12.142 7.709,8.05 32.099,6.27 "/>
<polygon style="fill-rule:evenodd;clip-rule:evenodd;fill:#7DEBF5;" points="40.379,13.11 40.379,39.28 12.859,40.87 12.859,14.71 
	"/>
<path style="fill-rule:evenodd;clip-rule:evenodd;fill:#00B3D7;" d="M36.526,17.413c0.154,0.694,0,1.387-0.695,1.465l-1.155,0.23
	v16.943c-1.003,0.539-1.928,0.847-2.698,0.847c-1.234,0-1.543-0.385-2.467-1.54l-7.555-11.86v11.475l2.391,0.539
	c0,0,0,1.386-1.929,1.386l-5.317,0.308c-0.154-0.308,0-1.078,0.539-1.232l1.388-0.385V20.418l-1.927-0.154
	c-0.155-0.694,0.23-1.694,1.31-1.772l5.704-0.385l7.862,12.015V19.493l-2.005-0.23c-0.154-0.848,0.462-1.464,1.233-1.54
	L36.526,17.413z"/>
</svg>